# xmcd
# 
# Track frame offsets:
#   150
#   17433
#   34673
#   51323
#   65918
#   83860
#   100519
#   116571
#   135138
#   151163
#   168446
#   185686
#   202336
#   216931
#   234873
#   251532
#   267584
#   286151
# 
# Disc length: 4029 seconds
# 
# Revision: 3
# Processed by: cddbd v1.5.2PL0 Copyright (c) Steve Scherf et al.
# Submitted via: Synapstar 1.0 
# 
DISCID=fa0fbb12
DTITLE=Various Artist - Phmc0810
DYEAR=2008
DGENRE=Country
TTITLE0=Blake Shelton - She Wouldn't Be Gone
TTITLE1=Toby Keith - She Never Cried In Front Of Me
TTITLE2=Road Hammers - Girl On The Billboard
TTITLE3=Lee Ann Womack - Last Call
TTITLE4=Little Big Town - Fine Line
TTITLE5=Heidi Newfield - Johnny and June
TTITLE6=Phil Vassar - I Would
TTITLE7=Trisha Yearwood - They Call It Falling For A Reason
TTITLE8=James Otto - For You
TTITLE9=X - X
TTITLE10=X - X
TTITLE11=X - X
TTITLE12=X - X
TTITLE13=X - X
TTITLE14=X - X
TTITLE15=X - X
TTITLE16=X - X
TTITLE17=X - X
EXTD=MediaType: Karaoke CD+G Producer: Soundchoice
EXTT0=
EXTT1=
EXTT2=
EXTT3=
EXTT4=
EXTT5=
EXTT6=
EXTT7=
EXTT8=
EXTT9=
EXTT10=
EXTT11=
EXTT12=
EXTT13=
EXTT14=
EXTT15=
EXTT16=
EXTT17=
PLAYORDER=
